<mxfile host="Electron" agent="Mozilla/5.0 (Macintosh; Intel Mac OS X 10_15_7) AppleWebKit/537.36 (KHTML, like Gecko) draw.io/26.0.4 Chrome/128.0.6613.186 Electron/32.2.5 Safari/537.36" version="26.0.4">
  <diagram name="Страница — 1" id="O7UXKmrHhJbtFQHpw8mE">
    <mxGraphModel dx="2411" dy="907" grid="1" gridSize="10" guides="1" tooltips="1" connect="1" arrows="1" fold="1" page="1" pageScale="1" pageWidth="1169" pageHeight="827" math="0" shadow="0">
      <root>
        <mxCell id="0" />
        <mxCell id="1" parent="0" />
        <mxCell id="L1aKWbRL0jlR046Id958-48" value="&lt;p style=&quot;margin:0px;margin-top:6px;text-align:center;&quot;&gt;&lt;b&gt;MCF Infra&lt;/b&gt;&lt;/p&gt;&lt;hr size=&quot;1&quot; style=&quot;border-style:solid;&quot;&gt;&lt;p style=&quot;margin:0px;margin-left:8px;&quot;&gt;&lt;br&gt;&lt;/p&gt;" style="align=left;overflow=fill;html=1;dropTarget=0;whiteSpace=wrap;" vertex="1" parent="1">
          <mxGeometry x="-260" y="40" width="1210" height="600" as="geometry" />
        </mxCell>
        <mxCell id="L1aKWbRL0jlR046Id958-49" value="" style="shape=component;jettyWidth=8;jettyHeight=4;" vertex="1" parent="L1aKWbRL0jlR046Id958-48">
          <mxGeometry x="1" width="20" height="20" relative="1" as="geometry">
            <mxPoint x="-24" y="4" as="offset" />
          </mxGeometry>
        </mxCell>
        <mxCell id="L1aKWbRL0jlR046Id958-43" style="edgeStyle=orthogonalEdgeStyle;rounded=0;orthogonalLoop=1;jettySize=auto;html=1;exitX=1;exitY=0.5;exitDx=0;exitDy=0;dashed=1;strokeColor=default;align=center;verticalAlign=middle;fontFamily=Helvetica;fontSize=11;fontColor=default;labelBackgroundColor=default;endArrow=open;endSize=12;" edge="1" parent="1" source="L1aKWbRL0jlR046Id958-36" target="L1aKWbRL0jlR046Id958-28">
          <mxGeometry relative="1" as="geometry" />
        </mxCell>
        <mxCell id="L1aKWbRL0jlR046Id958-44" style="edgeStyle=orthogonalEdgeStyle;rounded=0;orthogonalLoop=1;jettySize=auto;html=1;entryX=0;entryY=0.5;entryDx=0;entryDy=0;dashed=1;strokeColor=default;align=center;verticalAlign=middle;fontFamily=Helvetica;fontSize=11;fontColor=default;labelBackgroundColor=default;endArrow=open;endSize=12;" edge="1" parent="1" source="L1aKWbRL0jlR046Id958-36" target="L1aKWbRL0jlR046Id958-26">
          <mxGeometry relative="1" as="geometry" />
        </mxCell>
        <mxCell id="L1aKWbRL0jlR046Id958-47" style="edgeStyle=orthogonalEdgeStyle;rounded=0;orthogonalLoop=1;jettySize=auto;html=1;entryX=0;entryY=0.5;entryDx=0;entryDy=0;exitX=1;exitY=0.75;exitDx=0;exitDy=0;dashed=1;strokeColor=default;align=center;verticalAlign=middle;fontFamily=Helvetica;fontSize=11;fontColor=default;labelBackgroundColor=default;endArrow=open;endSize=12;" edge="1" parent="1" source="L1aKWbRL0jlR046Id958-36" target="L1aKWbRL0jlR046Id958-45">
          <mxGeometry relative="1" as="geometry" />
        </mxCell>
        <mxCell id="L1aKWbRL0jlR046Id958-36" value="&lt;p style=&quot;margin:0px;margin-top:6px;text-align:center;&quot;&gt;&lt;b&gt;MCF App&lt;/b&gt;&lt;/p&gt;&lt;hr size=&quot;1&quot; style=&quot;border-style:solid;&quot;&gt;&lt;p style=&quot;margin:0px;margin-left:8px;&quot;&gt;&lt;br&gt;&lt;/p&gt;" style="align=left;overflow=fill;html=1;dropTarget=0;whiteSpace=wrap;" vertex="1" parent="1">
          <mxGeometry x="40" y="80" width="600" height="520" as="geometry" />
        </mxCell>
        <mxCell id="L1aKWbRL0jlR046Id958-37" value="" style="shape=component;jettyWidth=8;jettyHeight=4;" vertex="1" parent="L1aKWbRL0jlR046Id958-36">
          <mxGeometry x="1" width="20" height="20" relative="1" as="geometry">
            <mxPoint x="-24" y="4" as="offset" />
          </mxGeometry>
        </mxCell>
        <mxCell id="L1aKWbRL0jlR046Id958-23" style="edgeStyle=orthogonalEdgeStyle;rounded=0;orthogonalLoop=1;jettySize=auto;html=1;entryX=0;entryY=0.25;entryDx=0;entryDy=0;dashed=1;strokeColor=default;align=center;verticalAlign=middle;fontFamily=Helvetica;fontSize=11;fontColor=default;labelBackgroundColor=default;endArrow=open;endSize=12;" edge="1" parent="1" source="L1aKWbRL0jlR046Id958-7" target="L1aKWbRL0jlR046Id958-14">
          <mxGeometry relative="1" as="geometry" />
        </mxCell>
        <mxCell id="L1aKWbRL0jlR046Id958-7" value="&lt;b&gt;Ставки&lt;/b&gt;" style="html=1;dropTarget=0;whiteSpace=wrap;" vertex="1" parent="1">
          <mxGeometry x="80" y="120" width="180" height="90" as="geometry" />
        </mxCell>
        <mxCell id="L1aKWbRL0jlR046Id958-8" value="" style="shape=module;jettyWidth=8;jettyHeight=4;" vertex="1" parent="L1aKWbRL0jlR046Id958-7">
          <mxGeometry x="1" width="20" height="20" relative="1" as="geometry">
            <mxPoint x="-27" y="7" as="offset" />
          </mxGeometry>
        </mxCell>
        <mxCell id="L1aKWbRL0jlR046Id958-24" style="edgeStyle=orthogonalEdgeStyle;rounded=0;orthogonalLoop=1;jettySize=auto;html=1;entryX=0;entryY=0.5;entryDx=0;entryDy=0;dashed=1;strokeColor=default;align=center;verticalAlign=middle;fontFamily=Helvetica;fontSize=11;fontColor=default;labelBackgroundColor=default;endArrow=open;endSize=12;" edge="1" parent="1" source="L1aKWbRL0jlR046Id958-9" target="L1aKWbRL0jlR046Id958-14">
          <mxGeometry relative="1" as="geometry" />
        </mxCell>
        <mxCell id="L1aKWbRL0jlR046Id958-9" value="&lt;b&gt;Расходники&lt;/b&gt;" style="html=1;dropTarget=0;whiteSpace=wrap;" vertex="1" parent="1">
          <mxGeometry x="80" y="290" width="180" height="90" as="geometry" />
        </mxCell>
        <mxCell id="L1aKWbRL0jlR046Id958-10" value="" style="shape=module;jettyWidth=8;jettyHeight=4;" vertex="1" parent="L1aKWbRL0jlR046Id958-9">
          <mxGeometry x="1" width="20" height="20" relative="1" as="geometry">
            <mxPoint x="-27" y="7" as="offset" />
          </mxGeometry>
        </mxCell>
        <mxCell id="L1aKWbRL0jlR046Id958-25" style="edgeStyle=orthogonalEdgeStyle;rounded=0;orthogonalLoop=1;jettySize=auto;html=1;entryX=0;entryY=0.75;entryDx=0;entryDy=0;dashed=1;strokeColor=default;align=center;verticalAlign=middle;fontFamily=Helvetica;fontSize=11;fontColor=default;labelBackgroundColor=default;endArrow=open;endSize=12;" edge="1" parent="1" source="L1aKWbRL0jlR046Id958-11" target="L1aKWbRL0jlR046Id958-14">
          <mxGeometry relative="1" as="geometry" />
        </mxCell>
        <mxCell id="L1aKWbRL0jlR046Id958-11" value="&lt;b&gt;Оценка качества&lt;/b&gt;" style="html=1;dropTarget=0;whiteSpace=wrap;" vertex="1" parent="1">
          <mxGeometry x="80" y="450" width="180" height="90" as="geometry" />
        </mxCell>
        <mxCell id="L1aKWbRL0jlR046Id958-12" value="" style="shape=module;jettyWidth=8;jettyHeight=4;" vertex="1" parent="L1aKWbRL0jlR046Id958-11">
          <mxGeometry x="1" width="20" height="20" relative="1" as="geometry">
            <mxPoint x="-27" y="7" as="offset" />
          </mxGeometry>
        </mxCell>
        <mxCell id="L1aKWbRL0jlR046Id958-14" value="&lt;b&gt;Обработка заказов&lt;/b&gt;" style="html=1;dropTarget=0;whiteSpace=wrap;" vertex="1" parent="1">
          <mxGeometry x="400" y="290" width="180" height="90" as="geometry" />
        </mxCell>
        <mxCell id="L1aKWbRL0jlR046Id958-15" value="" style="shape=module;jettyWidth=8;jettyHeight=4;" vertex="1" parent="L1aKWbRL0jlR046Id958-14">
          <mxGeometry x="1" width="20" height="20" relative="1" as="geometry">
            <mxPoint x="-27" y="7" as="offset" />
          </mxGeometry>
        </mxCell>
        <mxCell id="L1aKWbRL0jlR046Id958-17" value="&lt;b&gt;Обработка заявок от соискателей&lt;/b&gt;" style="html=1;dropTarget=0;whiteSpace=wrap;" vertex="1" parent="1">
          <mxGeometry x="400" y="130" width="180" height="90" as="geometry" />
        </mxCell>
        <mxCell id="L1aKWbRL0jlR046Id958-18" value="" style="shape=module;jettyWidth=8;jettyHeight=4;" vertex="1" parent="L1aKWbRL0jlR046Id958-17">
          <mxGeometry x="1" width="20" height="20" relative="1" as="geometry">
            <mxPoint x="-27" y="7" as="offset" />
          </mxGeometry>
        </mxCell>
        <mxCell id="L1aKWbRL0jlR046Id958-19" value="&lt;b&gt;Обработка платежей&lt;/b&gt;" style="html=1;dropTarget=0;whiteSpace=wrap;" vertex="1" parent="1">
          <mxGeometry x="400" y="450" width="180" height="90" as="geometry" />
        </mxCell>
        <mxCell id="L1aKWbRL0jlR046Id958-20" value="" style="shape=module;jettyWidth=8;jettyHeight=4;" vertex="1" parent="L1aKWbRL0jlR046Id958-19">
          <mxGeometry x="1" width="20" height="20" relative="1" as="geometry">
            <mxPoint x="-27" y="7" as="offset" />
          </mxGeometry>
        </mxCell>
        <mxCell id="L1aKWbRL0jlR046Id958-26" value="&lt;b&gt;Relational Database&lt;/b&gt;" style="html=1;dropTarget=0;whiteSpace=wrap;" vertex="1" parent="1">
          <mxGeometry x="720" y="200" width="180" height="90" as="geometry" />
        </mxCell>
        <mxCell id="L1aKWbRL0jlR046Id958-27" value="" style="shape=module;jettyWidth=8;jettyHeight=4;" vertex="1" parent="L1aKWbRL0jlR046Id958-26">
          <mxGeometry x="1" width="20" height="20" relative="1" as="geometry">
            <mxPoint x="-27" y="7" as="offset" />
          </mxGeometry>
        </mxCell>
        <mxCell id="L1aKWbRL0jlR046Id958-28" value="&lt;b&gt;SMTP Server&lt;/b&gt;" style="html=1;dropTarget=0;whiteSpace=wrap;" vertex="1" parent="1">
          <mxGeometry x="720" y="80" width="180" height="90" as="geometry" />
        </mxCell>
        <mxCell id="L1aKWbRL0jlR046Id958-29" value="" style="shape=module;jettyWidth=8;jettyHeight=4;" vertex="1" parent="L1aKWbRL0jlR046Id958-28">
          <mxGeometry x="1" width="20" height="20" relative="1" as="geometry">
            <mxPoint x="-27" y="7" as="offset" />
          </mxGeometry>
        </mxCell>
        <mxCell id="L1aKWbRL0jlR046Id958-39" style="edgeStyle=orthogonalEdgeStyle;rounded=0;orthogonalLoop=1;jettySize=auto;html=1;entryX=0;entryY=0.5;entryDx=0;entryDy=0;dashed=1;strokeColor=default;align=center;verticalAlign=middle;fontFamily=Helvetica;fontSize=11;fontColor=default;labelBackgroundColor=default;endArrow=open;endSize=12;" edge="1" parent="1" source="L1aKWbRL0jlR046Id958-30" target="L1aKWbRL0jlR046Id958-36">
          <mxGeometry relative="1" as="geometry" />
        </mxCell>
        <mxCell id="L1aKWbRL0jlR046Id958-30" value="&lt;b&gt;Reverse Proxy Server&lt;/b&gt;" style="html=1;dropTarget=0;whiteSpace=wrap;" vertex="1" parent="1">
          <mxGeometry x="-220" y="295" width="180" height="90" as="geometry" />
        </mxCell>
        <mxCell id="L1aKWbRL0jlR046Id958-31" value="" style="shape=module;jettyWidth=8;jettyHeight=4;" vertex="1" parent="L1aKWbRL0jlR046Id958-30">
          <mxGeometry x="1" width="20" height="20" relative="1" as="geometry">
            <mxPoint x="-27" y="7" as="offset" />
          </mxGeometry>
        </mxCell>
        <mxCell id="L1aKWbRL0jlR046Id958-38" style="edgeStyle=orthogonalEdgeStyle;rounded=0;orthogonalLoop=1;jettySize=auto;html=1;entryX=0;entryY=0.5;entryDx=0;entryDy=0;dashed=1;strokeColor=default;align=center;verticalAlign=middle;fontFamily=Helvetica;fontSize=11;fontColor=default;labelBackgroundColor=default;endArrow=open;endSize=12;" edge="1" parent="1" source="L1aKWbRL0jlR046Id958-32" target="L1aKWbRL0jlR046Id958-30">
          <mxGeometry relative="1" as="geometry" />
        </mxCell>
        <mxCell id="L1aKWbRL0jlR046Id958-32" value="&lt;b&gt;Web Browser&lt;/b&gt;" style="html=1;dropTarget=0;whiteSpace=wrap;" vertex="1" parent="1">
          <mxGeometry x="-480" y="295" width="180" height="90" as="geometry" />
        </mxCell>
        <mxCell id="L1aKWbRL0jlR046Id958-33" value="" style="shape=module;jettyWidth=8;jettyHeight=4;" vertex="1" parent="L1aKWbRL0jlR046Id958-32">
          <mxGeometry x="1" width="20" height="20" relative="1" as="geometry">
            <mxPoint x="-27" y="7" as="offset" />
          </mxGeometry>
        </mxCell>
        <mxCell id="L1aKWbRL0jlR046Id958-45" value="&lt;b&gt;External Payment Service&lt;/b&gt;" style="html=1;dropTarget=0;whiteSpace=wrap;" vertex="1" parent="1">
          <mxGeometry x="1000" y="510" width="180" height="90" as="geometry" />
        </mxCell>
        <mxCell id="L1aKWbRL0jlR046Id958-46" value="" style="shape=module;jettyWidth=8;jettyHeight=4;" vertex="1" parent="L1aKWbRL0jlR046Id958-45">
          <mxGeometry x="1" width="20" height="20" relative="1" as="geometry">
            <mxPoint x="-27" y="7" as="offset" />
          </mxGeometry>
        </mxCell>
        <mxCell id="L1aKWbRL0jlR046Id958-50" value="&lt;b&gt;Object Storage&lt;/b&gt;" style="html=1;dropTarget=0;whiteSpace=wrap;" vertex="1" parent="1">
          <mxGeometry x="720" y="324" width="180" height="90" as="geometry" />
        </mxCell>
        <mxCell id="L1aKWbRL0jlR046Id958-51" value="" style="shape=module;jettyWidth=8;jettyHeight=4;" vertex="1" parent="L1aKWbRL0jlR046Id958-50">
          <mxGeometry x="1" width="20" height="20" relative="1" as="geometry">
            <mxPoint x="-27" y="7" as="offset" />
          </mxGeometry>
        </mxCell>
        <mxCell id="L1aKWbRL0jlR046Id958-52" style="edgeStyle=orthogonalEdgeStyle;rounded=0;orthogonalLoop=1;jettySize=auto;html=1;dashed=1;strokeColor=default;align=center;verticalAlign=middle;fontFamily=Helvetica;fontSize=11;fontColor=default;labelBackgroundColor=default;endArrow=open;endSize=12;exitX=1;exitY=0.5;exitDx=0;exitDy=0;entryX=0;entryY=0.5;entryDx=0;entryDy=0;" edge="1" parent="1" source="L1aKWbRL0jlR046Id958-36" target="L1aKWbRL0jlR046Id958-50">
          <mxGeometry relative="1" as="geometry">
            <mxPoint x="650" y="350" as="sourcePoint" />
            <mxPoint x="1040" y="340" as="targetPoint" />
          </mxGeometry>
        </mxCell>
      </root>
    </mxGraphModel>
  </diagram>
</mxfile>
